<svg width="263" height="36" xmlns="http://www.w3.org/2000/svg" xmlns:xlink="http://www.w3.org/1999/xlink"><defs><path id="a" d="M1 .3h26v24.3H1z"/><path id="c" d="M0 .2h35.8V36H0z"/></defs><g fill="none" fill-rule="evenodd"><path d="M60.5 16.8h6.4c.6 0 1 .4 1 1.1 0 .7-.4 1.1-1 1.1h-6.4v7.7h7.4c.6 0 1.1.5 1.1 1.2s-.5 1.1-1 1.1h-8.8c-.7 0-1.2-.5-1.2-1.2V8.2c0-.7.5-1.2 1.2-1.2H68c.6 0 1.1.5 1.1 1.1 0 .7-.5 1.2-1 1.2h-7.5v7.5zm21.5 11c0 .8-.4 1.2-1 1.2s-1-.4-1-1.2V7.2c0-.8.4-1.2 1-1.2s1 .5 1 1.2v20.6zm20.6-9.4c0-1.8-1.4-3.3-3.1-3.3s-3.1 1.4-3.1 3.3v1.3h6.2v-1.3zm-6.2 3.2v2c0 1.9 1.4 3.3 3.2 3.3 1.2 0 2-.5 2.6-.9.4-.2.6-.3 1-.3.5 0 1 .5 1 1 0 .6-.3.9-.8 1.2a7.1 7.1 0 0 1-3.8 1.1c-3.2 0-5.6-2.3-5.6-5.4v-5.2c0-3.2 2.7-5.4 5.5-5.4s5.5 2.2 5.5 5.4v2c0 .7-.5 1.2-1.3 1.2h-7.3zm22.3 6.4L114 14.6a1.4 1.4 0 0 1-.1-.5c0-.6.5-1.1 1.2-1.1.6 0 1 .3 1.1.8l3.3 10.4.4 1.3.4-1.3 3.3-10.4c.1-.5.5-.8 1-.8.8 0 1.3.5 1.3 1v.6L121.2 28c-.2.6-.5 1-1.3 1s-1.1-.4-1.3-1m26-9.6c0-1.8-1.5-3.3-3.2-3.3a3.1 3.1 0 0 0-3.1 3.3v1.3h6.2v-1.3zm-6.3 3.2v2c0 1.9 1.4 3.3 3.2 3.3 1.2 0 2-.5 2.6-.9.4-.2.6-.3 1-.3.5 0 1 .5 1 1 0 .6-.3.9-.8 1.2a7.1 7.1 0 0 1-3.8 1.1c-3.2 0-5.6-2.3-5.6-5.4v-5.2c0-3.2 2.7-5.4 5.5-5.4s5.5 2.2 5.5 5.4v2c0 .7-.5 1.2-1.3 1.2h-7.3zm22 6.3c0 .7-.5 1.1-1.2 1.1s-1.2-.4-1.2-1.1V14c0-.5.4-1 1-1 .4 0 .7.3 1 .7.1.2.3.5.6.5l.8-.3c.7-.5 1.6-1 3-1 2.3 0 4.6 2.2 4.6 5.5v9.4c0 .7-.5 1.1-1.2 1.1s-1.2-.4-1.2-1.1v-9.4c0-1.9-1.3-3.3-3.1-3.3s-3.1 1.4-3.1 3.3v9.4zm30.9 1.1c-.8 0-1.3-.5-1.3-1.2V8.2c0-.7.5-1.2 1.3-1.2.7 0 1.3.5 1.3 1.2v18.5h7.3c.6 0 1.1.4 1.1 1.2 0 .7-.5 1.1-1 1.1h-8.7zm23.3-7.4c-1.9 0-3.2 1-3.2 2.6 0 1.7 1.3 2.7 3 2.7 1.8 0 3.2-1 3.2-2.8v-2.5h-3zM220 28c0 .6-.4.9-1 .9-.4 0-.7-.3-1-.7-.2-.2-.3-.4-.6-.4s-.6.2-.9.4c-.7.4-1.4.8-2.5.8-2.9 0-5-2-5-4.8 0-3 2.4-4.5 5.6-4.5h3v-1.3c0-1.7-1.3-3.3-3.1-3.3-1 0-1.7.4-2.4.7l-1 .3a1 1 0 0 1-1-1c0-.6.3-1 .8-1.2.9-.4 2.2-.9 3.6-.9 3 0 5.5 2.3 5.5 5.4V28zm20.6-9.7c0-1.9-1.4-3.4-3.1-3.4-1.7 0-3.1 1.5-3.1 3.4v5.2c0 1.8 1.4 3.3 3.1 3.3 1.8 0 3.1-1.6 3.1-3.3v-5.2zm-8.6 9.6V7c0-.7.5-1.1 1.2-1.1s1.2.4 1.2 1.1v6.6c0 .2 0 .4.2.4s.4-.1.5-.3c.8-.6 1.8-1 2.9-1 2.9 0 5 2.2 5 5.5v5.2c0 3.2-2.2 5.5-5 5.5-1 0-2-.5-2.5-.9l-.9-.3c-.2 0-.5.1-.6.4-.3.3-.6.6-1 .6-.5 0-1-.3-1-1zm23.4-10.2c0 1.3 1.8 1.8 3.2 2.3 2 .5 4.4 1.4 4.4 4.3 0 2.7-2.1 4.7-5.3 4.7-1.4 0-2.5-.3-3.7-1-.7-.2-1-.6-1-1.1 0-.7.6-1 1.2-1 .3 0 .6 0 1 .3a6 6 0 0 0 2.5.7c1.8 0 2.9-1.2 2.9-2.5 0-1.4-1.5-2-3.2-2.5-1.7-.5-4.4-1.5-4.4-4.2 0-2.6 2.5-4.7 5.2-4.7 1.4 0 2.6.4 3.5.8.6.3.9.6.9 1.2 0 .5-.5 1-1.1 1l-.8-.2c-.8-.4-1.4-.7-2.5-.7-1.5 0-2.8 1.2-2.8 2.6" fill="#FFF"/><g transform="translate(13 2.8)"><mask id="b" fill="#fff"><use xlink:href="#a"/></mask><path d="M16.2 11a1 1 0 0 1-1.3 0 1 1 0 0 1 0-1.4l4-3.3a1 1 0 0 1 1.3 0c.3.5.3 1 0 1.4l-4 3.3zm-.1 6.4c0-.7.4-1.3 1-1.8l1.7-1.5c2.2-1.9 5.9-8 8-11.8.7-1-.4-2.4-1.5-2a60.2 60.2 0 0 0-13 6.1L10.4 8a2.9 2.9 0 0 1-1.9.7C2.6 8.6 1 11 1 11l.8.8s3.5-.5 5.4 1.8L5.5 15l1 1.1-1.2 1 2.1 2.6.3-.3-1-2.7 2.5 2.8.5-.5-.7-3 2 2.1c2 2.3.9 5.6.9 5.6l.7 1s2.5-1.5 3.5-7.3z" fill="#FFF" mask="url(#b)"/></g><g transform="translate(0 -.2)"><mask id="d" fill="#fff"><use xlink:href="#c"/></mask><path d="M18.8 34.4c-5.8.3-11-2.4-14.1-6.8-.2-.2 0-.5.3-.3 4 2.7 10.2 2 14.3-5.5-20.5 5.7-18-20.2-1.4-20 5.8.1 10.8 3 13.7 7.6a1 1 0 0 1 1.3-.1 1 1 0 0 1 0 1.5l-.3.3a16.2 16.2 0 0 1 1.6 7.4C34 27 27.2 34 18.8 34.4M17.8.2A17.9 17.9 0 1 0 18 36 17.9 17.9 0 0 0 18 .2" fill="#FFF" mask="url(#d)"/></g></g></svg>